<?xml version="1.0" encoding="iso-8859-1"?>
<!-- Uploaded to: SVG Repo, www.svgrepo.com, Generator: SVG Repo Mixer Tools -->
<!DOCTYPE svg PUBLIC "-//W3C//DTD SVG 1.1//EN" "http://www.w3.org/Graphics/SVG/1.1/DTD/svg11.dtd">
<svg version="1.1" id="Capa_1" xmlns="http://www.w3.org/2000/svg" xmlns:xlink="http://www.w3.org/1999/xlink" 
	 viewBox="0 0 512 512" xml:space="preserve">
<g>
	<path style="fill:#FFFFFF;" d="M208.313,287.688c0,30.929-25.077,56-56,56c-30.929,0-56-25.071-56-56c0-30.935,25.071-56,56-56
		C183.235,231.688,208.313,256.753,208.313,287.688z"/>
	<path style="fill:#003B54;" d="M152.313,375.688c-48.523,0-88-39.477-88-88s39.477-88,88-88s88,39.477,88,88
		S200.836,375.688,152.313,375.688z M152.313,231.688c-30.875,0-56,25.121-56,56s25.125,56,56,56s56-25.121,56-56
		S183.188,231.688,152.313,231.688z"/>
	<g>
		<path style="fill:#F69348;" d="M32,160v256h448V160H32z M152.313,375.688c-48.523,0-88-39.477-88-88s39.477-88,88-88
			s88,39.477,88,88S200.836,375.688,152.313,375.688z M360.313,375.688c-48.523,0-88-39.477-88-88s39.477-88,88-88s88,39.477,88,88
			S408.836,375.688,360.313,375.688z"/>
	</g>
	<circle style="fill:#FFFFFF;" cx="360.313" cy="287.688" r="56"/>
	<path style="fill:#003B54;" d="M360.313,375.688c-48.523,0-88-39.477-88-88s39.477-88,88-88s88,39.477,88,88
		S408.836,375.688,360.313,375.688z M360.313,231.688c-30.875,0-56,25.121-56,56s25.125,56,56,56s56-25.121,56-56
		S391.188,231.688,360.313,231.688z"/>
	<path style="fill:#003B54;" d="M360.313,303.688c-4.094,0-8.188-1.563-11.313-4.688c-6.25-6.246-6.25-16.379,0-22.625l24-24
		c6.25-6.25,16.375-6.25,22.625,0c6.25,6.246,6.25,16.379,0,22.625l-24,24C368.5,302.125,364.406,303.688,360.313,303.688z"/>
	<path style="fill:#003B54;" d="M176.313,327.688c-4.094,0-8.188-1.563-11.313-4.688l-24-24c-6.25-6.246-6.25-16.379,0-22.625
		c6.25-6.25,16.375-6.25,22.625,0l24,24c6.25,6.246,6.25,16.379,0,22.625C184.5,326.125,180.406,327.688,176.313,327.688z"/>
	<rect x="352" y="96" style="fill:#FFFFFF;" width="16" height="32"/>
	<rect x="144" y="96" style="fill:#FFFFFF;" width="16" height="32"/>
	<path style="fill:#003B54;" d="M496.313,128H400V95.688c9,0,16.156-7.008,16.156-15.844c0-8.836-7.008-15.844-15.844-15.844h-16
		h-48h-16c-8.836,0-16.156,7.008-16.156,15.844c0,8.836,6.844,15.844,15.844,15.844V128H192V95.688c9,0,16.156-7.008,16.156-15.844
		c0-8.836-7.008-15.844-15.844-15.844h-16h-48h-16c-8.836,0-16.156,7.008-16.156,15.844c0,8.836,6.844,15.844,15.844,15.844V128
		H16.313C7.477,128,0,134.852,0,143.688v288C0,440.523,7.477,448,16.313,448h480c8.836,0,15.688-7.477,15.688-16.313v-288
		C512,134.852,505.148,128,496.313,128z M352,96h16v32h-16V96z M144,96h16v32h-16V96z M480,416H32V160h96.313h48h160h48H480V416z"/>
</g>
</svg>