<?xml version="1.0" encoding="utf-8"?>
<!-- Uploaded to: SVG Repo, www.svgrepo.com, Generator: SVG Repo Mixer Tools -->
<svg width="800px" height="800px" viewBox="0 0 1024 1024" class="icon"  version="1.1" xmlns="http://www.w3.org/2000/svg"><path d="M137.736 921.176a381.336 81.488 0 1 0 762.672 0 381.336 81.488 0 1 0-762.672 0Z" fill="#B8CBCD" /><path d="M644.408 445.336l-208-18.664v-260c0-64.064-51.936-116-116-116s-116 51.936-116 116v740c0 17.672 123.568 32 276 32 152.432 0 276-14.328 276-32V557.336c0-61.848-50.144-112-112-112z" fill="#F6E89A" /><path d="M269.256 807.504c-37.6-8.552-48.848-13.984-48.848-13.984v101.152s16.664 7.048 48.832 14.08c0.256-34.736-0.512-66.52 0.016-101.248z" fill="#FFFFFF" /><path d="M480.408 946.672c-74.32 0-144.28-3.368-197.008-9.48-79.448-9.216-94.992-21.104-94.992-38.52v-732c0-72.784 59.216-132 132-132h84a16 16 0 0 1 0 32h-84c-55.144 0-100 44.856-100 100v725.904c21.616 9.8 117.488 22.096 260 22.096a16 16 0 0 1 0 32z" fill="#8D4520" /><path d="M676.408 354.672s-56-8-56 56c-21.888-17.992 24-104-56-104-64 0-48 120-48 120v-260c0-64.064-51.936-116-116-116s-116 51.936-116 116v740c0 17.672 123.568 32 276 32 152.432 0 276-14.328 276-32V557.336c0-16.928 8-138.664-48-138.664-38.864 0-47.016 22.032-56 40 0-96-32.76-104-56-104z" fill="#F6E89A" /><path d="M285.808 797.904v108.264s65.784 28 279.6 28 271-29 271-29v-104s-27.504 28-272 28-278.6-31.264-278.6-31.264z" fill="#FFFFFF" /><path d="M560.408 954.672c-277.888 0-292-14.44-292-38v-750c0-72.784 59.216-132 132-132 72.784 0 132 59.216 132 132v131.136a68.912 68.912 0 0 1 37.336-10.936c35.632 0 63.056 25.624 66.336 60.68a75.736 75.736 0 0 1 40.328-11.448c39.704 0 72 29.856 72 66.56v8.152a69.192 69.192 0 0 1 34.664-9.272c38.232 0 69.336 31.104 69.336 69.328v435.8c0 17.424-15.544 29.304-94.992 38.52-52.728 6.112-122.688 9.48-197.008 9.48z m-260-44.848c15.464 5.456 71.256 12.84 260 12.84 142.504 0 238.384-12.296 260-22.096V470.872a37.376 37.376 0 0 0-37.336-37.328 37.28 37.28 0 0 0-32.992 19.88 16 16 0 0 1-15.784 8.416 17.44 17.44 0 0 1-12.432-7.136 15.984 15.984 0 0 1-5.464-12.04v-40c0-21.344-20.768-34.56-40-34.56s-40 13.216-40 34.56a16 16 0 0 1-32 0v-48c0-21.08-14.256-35.8-34.664-35.8a37.384 37.384 0 0 0-37.336 37.336 16 16 0 0 1-32 0V166.672c0-55.144-44.856-100-100-100s-100 44.856-100 100v743.152z" fill="#8D4520" /><path d="M284.432 823.504c-0.712 0-1.432-0.048-2.16-0.144-93.864-12.624-93.864-31.944-93.864-40.192a16 16 0 0 1 29.976-7.792c7.008 3.76 30.968 11.264 68.16 16.264a16.008 16.008 0 0 1-2.112 31.864z" fill="#8D4520" /><path d="M560.408 842.672c-140.24 0-271.52-10.144-292.632-22.6a16 16 0 1 1 16.264-27.56c13.08 6.24 119.864 18.168 276.368 18.168 146.216 0 243.344-12.944 261.536-22.848a16 16 0 0 1 30.464 6.848c0 17.424-15.544 29.304-95 38.52-52.72 6.104-122.68 9.472-197 9.472zM722.528 762.672H602.712a16 16 0 0 1-16-16c0-31.52 28.872-57.96 59.44-85.96 25.344-23.208 54.072-49.512 54.072-71.688 0-28.112-23.832-40.752-40.752-40.752-14.144 0-47.064 4.584-47.064 47.064a16 16 0 0 1-32 0c0-58.36 42.592-79.064 79.064-79.064 35.76 0 72.752 27.208 72.752 72.752 0 36.256-32.768 66.264-64.456 95.288-16.536 15.152-34.664 31.744-43.536 46.36h98.296a16 16 0 0 1 0 32zM508.408 762.672a16 16 0 0 1-16-16v-48h-80a16.016 16.016 0 0 1-13.528-24.544l96-152a16 16 0 0 1 29.528 8.544v136h32a16 16 0 0 1 0 32h-32v48a16 16 0 0 1-16 16z m-66.968-96h50.968V585.968L441.44 666.672z" fill="#8D4520" /><path d="M404.408 50.672l0.016 0.2a115.784 115.784 0 0 1 111.984 115.808v189.536a53.328 53.328 0 0 1 53.336-53.336c29.456 0 50.664 22.344 50.664 51.8v48c0-9.544 2.824-18.2 7.6-25.56a42.144 42.144 0 0 1 22-19.016 61.2 61.2 0 0 1 26.4-5.984c29.456 0 56 21.112 56 50.56v40c2.072 0.096 1.496 3.048 3.536 3.256a53.328 53.328 0 0 1 100.464 24.944v43.216c0.872 20.432 0 37.624 0 43.24v349.336c0 17.672-123.568 32-276 32-17.272 0-34.152-0.064-50.536-0.184-9.68 0.128-19.504 0.184-29.464 0.184-152.432 0-276-14.328-276-32v-740c0-64.064 51.936-116 116-116h84m0-32h-84c-81.608 0-148 66.392-148 148v740c0 38.616 49.44 47.496 109.152 54.416 53.312 6.176 123.928 9.584 198.848 9.584 9.976 0 19.832-0.064 29.544-0.184 16.368 0.128 33.208 0.184 50.456 0.184 74.912 0 145.528-3.408 198.84-9.584 59.72-6.92 109.16-15.8 109.16-54.416V557.336c0-1.176 0.048-2.936 0.112-5.176 0.208-8.432 0.56-22.456-0.112-38.736V470.88c0-47.048-38.28-85.328-85.336-85.328-6.856 0-13.584 0.816-20.072 2.384-7.432-38.512-43.44-67.816-86.592-67.816-9.84 0-19.696 1.584-29.032 4.64-11.392-32.12-41.008-53.872-77.632-53.872-7.368 0-14.52 0.936-21.336 2.696V166.672c0-19.96-3.912-39.344-11.64-57.616a148.24 148.24 0 0 0-13.656-25.168 148.44 148.44 0 0 0-113.592-64.8 31.712 31.712 0 0 0-5.112-0.416z" fill="#8D4520" /><path d="M316.408 948.416a24 24 0 0 1-24-24V166.672c0-75.888 66.4-140 145-140a24 24 0 1 1 0 48c-52.576 0-97 42.128-97 92v757.744a24 24 0 0 1-24 24z" fill="#8D4520" /></svg>